<?xml version="1.0" encoding="UTF-8"?>
<svg id="Layer_1" data-name="Layer 1" xmlns="http://www.w3.org/2000/svg" xmlns:xlink="http://www.w3.org/1999/xlink" viewBox="0 0 432.26 414.85">
  <defs>
    <style>
      .cls-1 {
        fill: url(#linear-gradient);
      }

      .cls-1, .cls-2, .cls-3 {
        fill-rule: evenodd;
      }

      .cls-2 {
        fill: url(#linear-gradient-3);
      }

      .cls-3 {
        fill: url(#linear-gradient-2);
      }
    </style>
    <linearGradient id="linear-gradient" x1="-78" y1="711.89" x2="-77" y2="711.89" gradientTransform="translate(-87542.32 -70368.66) rotate(135) scale(157.32 -157.32)" gradientUnits="userSpaceOnUse">
      <stop offset="0" stop-color="#fdb64e"/>
      <stop offset="1" stop-color="#d67f00"/>
    </linearGradient>
    <linearGradient id="linear-gradient-2" x1="-78" y1="711.98" x2="-77" y2="711.98" gradientTransform="translate(-243200.01 27004.67) rotate(90) scale(341.91 -341.91)" gradientUnits="userSpaceOnUse">
      <stop offset="0" stop-color="#e2f4fe"/>
      <stop offset="1" stop-color="#4ec0ff"/>
    </linearGradient>
    <linearGradient id="linear-gradient-3" x1="-78.74" y1="711.56" x2="-78.32" y2="711.56" xlink:href="#linear-gradient-2"/>
  </defs>
  <path class="cls-1" d="M253.9,160.57c1.57,3.98,4.82,7.06,8.89,8.4,23.28,7.57,42.44,24.29,53.28,45.88,1.93,3.82,5.45,6.58,9.62,7.54,7.31,1.68,14.88,2.56,22.68,2.56,31.42,0,59.56-14.32,78.47-36.59,.17-.19,.33-.4,.5-.59,5.81-7.65,6.54-18.03,1.84-26.41-4.7-8.38-13.94-13.18-23.5-12.18l-7.63,.4c-38.48,0-69.73-31.23-69.73-69.71,0-5.74,.69-11.3,1.7-16.72l.08-.38c2.03-9.03-1.4-18.44-8.8-24.06-7.52-5.72-17.69-6.43-25.93-1.82-.19,.11-.38,.23-.57,.34-28.76,17.92-47.93,49.84-47.93,86.2,0,13.12,2.51,25.65,7.04,37.14h0Z"/>
  <path class="cls-3" d="M134.42,189.75c-61.26,.99-110.68,51.04-110.68,112.53,0,41.5,22.07,112.57,106.07,112.57h209.53c30.27,0,53.34-10.79,68.98-27.6,15.61-16.73,23.93-39.78,23.93-65.33h0c0-47.16-35.13-86.12-80.65-92.11-11.84-53.76-59.78-94.02-117.08-94.02-41.81,0-78.66,21.46-100.1,53.95h0Z"/>
  <path class="cls-2" d="M46.4,22.62C20.72,23.03,0,44.02,0,69.79c0,17.4,9.25,47.19,44.47,47.19h87.84c12.69,0,22.36-4.52,28.92-11.57,6.54-7.02,10.03-16.68,10.03-27.39h0c0-19.77-14.73-36.1-33.81-38.61C132.48,16.88,112.38,0,88.36,0c-17.53,0-32.98,9-41.96,22.62h0Z"/>
</svg>