<?xml version="1.0" encoding="UTF-8" standalone="no"?><!DOCTYPE svg PUBLIC "-//W3C//DTD SVG 1.1//EN" "http://www.w3.org/Graphics/SVG/1.1/DTD/svg11.dtd"><svg width="100%" height="100%" viewBox="0 0 32 32" version="1.1" xmlns="http://www.w3.org/2000/svg" xmlns:xlink="http://www.w3.org/1999/xlink" xml:space="preserve" xmlns:serif="http://www.serif.com/" style="fill-rule:evenodd;clip-rule:evenodd;stroke-linejoin:round;stroke-miterlimit:2;"><path d="M6.144,19.267c0.104,0.348 0.443,0.571 0.804,0.529c0.178,-0.02 0.36,-0.031 0.544,-0.031c0.099,0 0.196,0.003 0.293,0.009c0.288,0.018 0.56,-0.131 0.7,-0.382c0.882,-1.576 2.567,-2.642 4.5,-2.642c2.639,-0 4.818,1.989 5.116,4.549c0.044,0.378 0.365,0.663 0.745,0.663c1.291,0.001 2.424,0.672 3.072,1.684c0.12,0.188 0.318,0.312 0.54,0.34c0.222,0.027 0.444,-0.046 0.607,-0.2c1.984,-1.875 3.223,-4.532 3.223,-7.476c0,-5.678 -4.61,-10.288 -10.288,-10.288c-5.678,-0 -10.288,4.61 -10.288,10.288c-0,1.028 0.151,2.02 0.432,2.957Z" style="fill:url(#_Linear1);"/><path d="M7.415,18.266c-3.41,0.041 -6.165,2.822 -6.165,6.242c-0,2.301 1.221,6.242 5.879,6.242c11.717,-0 11.717,0 11.717,-0c1.676,-0 2.954,-0.595 3.82,-1.526c0.863,-0.927 1.324,-2.203 1.324,-3.618c-0,0 -0,0 -0,0c-0,-2.623 -1.964,-4.788 -4.502,-5.104c-0.643,-3 -3.312,-5.252 -6.503,-5.252c-2.33,-0 -4.382,1.2 -5.57,3.016Z" style="fill:url(#_Linear2);"/><path d="M15.25,2l0,2c0,0.414 0.336,0.75 0.75,0.75c0.414,-0 0.75,-0.336 0.75,-0.75l0,-2c0,-0.414 -0.336,-0.75 -0.75,-0.75c-0.414,-0 -0.75,0.336 -0.75,0.75Z" style="fill:url(#_Linear3);"/><path d="M22.35,3.501l-1,1.732c-0.206,0.358 -0.083,0.817 0.275,1.024c0.358,0.207 0.818,0.084 1.025,-0.274l1,-1.732c0.206,-0.359 0.083,-0.818 -0.275,-1.025c-0.358,-0.207 -0.818,-0.084 -1.025,0.275Z" style="fill:url(#_Linear4);"/><path d="M27.749,8.35l-1.732,1c-0.358,0.207 -0.481,0.667 -0.274,1.025c0.207,0.358 0.666,0.481 1.024,0.275l1.732,-1c0.359,-0.207 0.482,-0.667 0.275,-1.025c-0.207,-0.358 -0.666,-0.481 -1.025,-0.275Z" style="fill:url(#_Linear5);"/><path d="M30,15.25l-2,0c-0.414,-0 -0.75,0.336 -0.75,0.75c-0,0.414 0.336,0.75 0.75,0.75l2,0c0.414,-0 0.75,-0.336 0.75,-0.75c-0,-0.414 -0.336,-0.75 -0.75,-0.75Z" style="fill:url(#_Linear6);"/><path d="M28.499,22.35l-1.732,-1c-0.358,-0.206 -0.817,-0.083 -1.024,0.275c-0.207,0.358 -0.084,0.818 0.274,1.025l1.732,1c0.359,0.206 0.818,0.083 1.025,-0.275c0.207,-0.358 0.084,-0.818 -0.275,-1.025Z" style="fill:url(#_Linear7);"/><path d="M2,16.75l2,0c0.414,-0 0.75,-0.336 0.75,-0.75c-0,-0.414 -0.336,-0.75 -0.75,-0.75l-2,0c-0.414,-0 -0.75,0.336 -0.75,0.75c-0,0.414 0.336,0.75 0.75,0.75Z" style="fill:url(#_Linear8);"/><path d="M3.501,9.65l1.732,1c0.358,0.206 0.817,0.083 1.024,-0.275c0.207,-0.358 0.084,-0.818 -0.274,-1.025l-1.732,-1c-0.359,-0.206 -0.818,-0.083 -1.025,0.275c-0.207,0.358 -0.084,0.818 0.275,1.025Z" style="fill:url(#_Linear9);"/><path d="M8.35,4.251l1,1.732c0.207,0.358 0.667,0.481 1.025,0.274c0.358,-0.207 0.481,-0.666 0.275,-1.024l-1,-1.732c-0.207,-0.359 -0.667,-0.482 -1.025,-0.275c-0.358,0.207 -0.481,0.666 -0.275,1.025Z" style="fill:url(#_Linear10);"/><defs><linearGradient id="_Linear1" x1="0" y1="0" x2="1" y2="0" gradientUnits="userSpaceOnUse" gradientTransform="matrix(-4.4205,17.7262,-17.7262,-4.4205,17.6976,14.8838)"><stop offset="0" style="stop-color:#fcd935;stop-opacity:1"/><stop offset="1" style="stop-color:#dbb500;stop-opacity:1"/></linearGradient><linearGradient id="_Linear2" x1="0" y1="0" x2="1" y2="0" gradientUnits="userSpaceOnUse" gradientTransform="matrix(1.18049e-15,19.2789,-19.2789,1.18049e-15,14,25.2211)"><stop offset="0" style="stop-color:#e2f4fd;stop-opacity:1"/><stop offset="1" style="stop-color:#4dc4ff;stop-opacity:1"/></linearGradient><linearGradient id="_Linear3" x1="0" y1="0" x2="1" y2="0" gradientUnits="userSpaceOnUse" gradientTransform="matrix(5.12782e-16,8.37437,-8.37437,5.12782e-16,16.0269,3.12563)"><stop offset="0" style="stop-color:#fcd935;stop-opacity:1"/><stop offset="1" style="stop-color:#c19f00;stop-opacity:1"/></linearGradient><linearGradient id="_Linear4" x1="0" y1="0" x2="1" y2="0" gradientUnits="userSpaceOnUse" gradientTransform="matrix(-3.62683,7.1914,-7.1914,-3.62683,22.6268,4.5)"><stop offset="0" style="stop-color:#fcd935;stop-opacity:1"/><stop offset="1" style="stop-color:#c19f00;stop-opacity:1"/></linearGradient><linearGradient id="_Linear5" x1="0" y1="0" x2="1" y2="0" gradientUnits="userSpaceOnUse" gradientTransform="matrix(-5.44457,3.5,-3.5,-5.44457,27.4446,9.5)"><stop offset="0" style="stop-color:#fcd935;stop-opacity:1"/><stop offset="1" style="stop-color:#c19f00;stop-opacity:1"/></linearGradient><linearGradient id="_Linear6" x1="0" y1="0" x2="1" y2="0" gradientUnits="userSpaceOnUse" gradientTransform="matrix(-10.0251,1.22772e-15,-1.22772e-15,-10.0251,29.2537,16)"><stop offset="0" style="stop-color:#fcd935;stop-opacity:1"/><stop offset="1" style="stop-color:#c19f00;stop-opacity:1"/></linearGradient><linearGradient id="_Linear7" x1="0" y1="0" x2="1" y2="0" gradientUnits="userSpaceOnUse" gradientTransform="matrix(-4.37317,-3.6353,3.6353,-4.37317,27,22.5)"><stop offset="0" style="stop-color:#fcd935;stop-opacity:1"/><stop offset="1" style="stop-color:#c19f00;stop-opacity:1"/></linearGradient><linearGradient id="_Linear8" x1="0" y1="0" x2="1" y2="0" gradientUnits="userSpaceOnUse" gradientTransform="matrix(18.2573,3.15544e-30,-6.31089e-30,18.2573,2.74266,16)"><stop offset="0" style="stop-color:#fcd935;stop-opacity:1"/><stop offset="1" style="stop-color:#c19f00;stop-opacity:1"/></linearGradient><linearGradient id="_Linear9" x1="0" y1="0" x2="1" y2="0" gradientUnits="userSpaceOnUse" gradientTransform="matrix(10.0304,6.5,-6.5,10.0304,4.55543,9.5)"><stop offset="0" style="stop-color:#fcd935;stop-opacity:1"/><stop offset="1" style="stop-color:#c19f00;stop-opacity:1"/></linearGradient><linearGradient id="_Linear10" x1="0" y1="0" x2="1" y2="0" gradientUnits="userSpaceOnUse" gradientTransform="matrix(4.87166,7.797,-7.797,4.87166,9.5,4.703)"><stop offset="0" style="stop-color:#fcd935;stop-opacity:1"/><stop offset="1" style="stop-color:#c19f00;stop-opacity:1"/></linearGradient></defs></svg>