<?xml version="1.0" encoding="UTF-8"?>
<svg id="Layer_1" data-name="Layer 1" xmlns="http://www.w3.org/2000/svg" xmlns:xlink="http://www.w3.org/1999/xlink" viewBox="0 0 379.69 379.65">
  <defs>
    <style>
      .cls-1 {
        fill: url(#linear-gradient);
        fill-rule: evenodd;
      }
    </style>
    <linearGradient id="linear-gradient" x1="-102.89" y1="684.87" x2="-101.89" y2="684.87" gradientTransform="translate(-200425.24 -147919.88) rotate(135) scale(360.05 -360.05)" gradientUnits="userSpaceOnUse">
      <stop offset="0" stop-color="#fdb64e"/>
      <stop offset="1" stop-color="#d67f00"/>
    </linearGradient>
  </defs>
  <path class="cls-1" d="M65.41,10.33c-.11,.11-.25,.23-.36,.34C24.92,49.75,0,104.33,0,164.69c0,118.63,96.31,214.96,214.96,214.96,59.36,0,113.14-24.12,153.08-62.14,.21-.21,.4-.42,.61-.63,11.61-12.47,14.32-30.79,6.87-46.11-7.46-15.32-23.58-24.46-40.56-23.01h-.1c-5.78,.54-11.61,.82-17.52,.82-102.82,0-186.28-83.48-186.28-186.28,0-2.18,.71-9.31,.86-18.88,1.47-16.16-7.08-31.67-21.63-39.09-14.75-7.52-32.61-5.13-44.89,5.99h0Z"/>
</svg>