<?xml version="1.0" encoding="UTF-8" standalone="no"?><!DOCTYPE svg PUBLIC "-//W3C//DTD SVG 1.1//EN" "http://www.w3.org/Graphics/SVG/1.1/DTD/svg11.dtd"><svg width="100%" height="100%" viewBox="0 0 32 32" version="1.1" xmlns="http://www.w3.org/2000/svg" xmlns:xlink="http://www.w3.org/1999/xlink" xml:space="preserve" xmlns:serif="http://www.serif.com/" style="fill-rule:evenodd;clip-rule:evenodd;stroke-linejoin:round;stroke-miterlimit:2;"><path d="M9.269,9.997l-0.029,0c-4.41,0 -7.99,3.581 -7.99,7.991c0,2.943 1.555,7.99 7.511,7.99c15.447,0 15.447,0 15.447,0c2.132,0 3.759,-0.752 4.861,-1.935c1.099,-1.181 1.681,-2.806 1.681,-4.607c-0,-0 -0,-0 -0,-0c-0,-3.395 -2.585,-6.186 -5.895,-6.511c-0.76,-3.931 -4.223,-6.903 -8.374,-6.903c-3.033,-0 -5.699,1.587 -7.212,3.975Z" style="fill:url(#_Linear1);"/><defs><linearGradient id="_Linear1" x1="0" y1="0" x2="1" y2="0" gradientUnits="userSpaceOnUse" gradientTransform="matrix(1.28588e-15,21,-21,1.28588e-15,16.0102,20.5)"><stop offset="0" style="stop-color:#e2f4fd;stop-opacity:1"/><stop offset="1" style="stop-color:#50ffff;stop-opacity:1"/></linearGradient></defs></svg>