<?xml version="1.0" encoding="UTF-8"?>
<svg id="Layer_1" data-name="Layer 1" xmlns="http://www.w3.org/2000/svg" xmlns:xlink="http://www.w3.org/1999/xlink" viewBox="0 0 543.09 548.78">
  <defs>
    <style>
      .cls-1 {
        fill: none;
        stroke: #eee;
        stroke-linecap: round;
        stroke-miterlimit: 10;
        stroke-width: 12px;
      }

      .cls-2 {
        fill: url(#linear-gradient);
        fill-rule: evenodd;
      }
    </style>
    <linearGradient id="linear-gradient" x1="-34.43" y1="678.12" x2="-33.43" y2="678.12" gradientTransform="translate(-239386.29 12448.4) rotate(90) scale(353.41 -353.41)" gradientUnits="userSpaceOnUse">
      <stop offset="0" stop-color="#e2f4fe"/>
      <stop offset="1" stop-color="#4ec0ff"/>
    </linearGradient>
  </defs>
  <path class="cls-2" d="M147.57,73.04h-.21C66.02,73.04,0,139.06,0,220.4c0,54.28,28.69,147.36,138.56,147.36H422.34c39.34,0,69.37-13.88,89.72-35.73,20.29-21.78,31.04-51.79,31.04-85.03h0c0-62.52-47.51-113.93-108.4-120.12C420.52,54.6,356.78,0,280.37,0c-55.81,0-104.88,29.13-132.8,73.04h0Z"/>
  <line class="cls-1" x1="212.29" y1="393.14" x2="297.46" y2="393.14"/>
  <line class="cls-1" x1="159.95" y1="423.47" x2="312.34" y2="423.47"/>
  <line class="cls-1" x1="212.2" y1="453.8" x2="392.62" y2="453.8"/>
  <line class="cls-1" x1="143.28" y1="484.13" x2="325.59" y2="484.13"/>
  <line class="cls-1" x1="183.53" y1="514.45" x2="362.34" y2="514.45"/>
  <line class="cls-1" x1="212.2" y1="542.78" x2="322.07" y2="542.78"/>
</svg>