<?xml version="1.0" encoding="UTF-8" standalone="no"?><!DOCTYPE svg PUBLIC "-//W3C//DTD SVG 1.1//EN" "http://www.w3.org/Graphics/SVG/1.1/DTD/svg11.dtd"><svg width="100%" height="100%" viewBox="0 0 32 32" version="1.1" xmlns="http://www.w3.org/2000/svg" xmlns:xlink="http://www.w3.org/1999/xlink" xml:space="preserve" xmlns:serif="http://www.serif.com/" style="fill-rule:evenodd;clip-rule:evenodd;stroke-linejoin:round;stroke-miterlimit:2;"><path d="M9.262,5.225l-0.029,0c-4.41,0 -7.99,3.581 -7.99,7.991c-0,2.943 1.554,7.99 7.511,7.99c15.446,0 15.446,0 15.446,0c2.132,0 3.76,-0.752 4.862,-1.935c1.099,-1.181 1.681,-2.806 1.681,-4.607c-0,-0 -0,-0 -0,-0c-0,-3.395 -2.586,-6.186 -5.895,-6.511c-0.76,-3.931 -4.223,-6.903 -8.374,-6.903c-3.034,-0 -5.7,1.587 -7.212,3.975Z" style="fill:url(#_Linear1);"/><path d="M10.177,22.087c-0.124,-0.261 -0.388,-0.428 -0.677,-0.428c-0.289,0 -0.553,0.167 -0.677,0.428c-0,-0 -1.346,2.901 -1.346,4.14c0,1.117 0.907,2.023 2.023,2.023c1.116,-0 2.023,-0.906 2.023,-2.023c-0,-1.239 -1.346,-4.14 -1.346,-4.14Z" style="fill:url(#_Linear2);"/><path d="M17.177,23.678c-0.124,-0.262 -0.388,-0.428 -0.677,-0.428c-0.289,-0 -0.553,0.166 -0.677,0.428c-0,-0 -1.573,3.378 -1.573,4.822c0,1.242 1.008,2.25 2.25,2.25c1.242,0 2.25,-1.008 2.25,-2.25c0,-1.444 -1.573,-4.822 -1.573,-4.822Z" style="fill:url(#_Linear3);"/><path d="M23.45,21.988c-0.125,-0.261 -0.388,-0.427 -0.677,-0.427c-0.29,-0 -0.553,0.166 -0.677,0.427c-0,0 -1.346,2.902 -1.346,4.141c0,1.116 0.906,2.023 2.023,2.023c1.116,-0 2.022,-0.907 2.022,-2.023c0,-1.239 -1.345,-4.141 -1.345,-4.141Z" style="fill:url(#_Linear4);"/><defs><linearGradient id="_Linear1" x1="0" y1="0" x2="1" y2="0" gradientUnits="userSpaceOnUse" gradientTransform="matrix(2.08908e-15,34.1172,-34.1172,2.08908e-15,17.4002,14.8828)"><stop offset="0" style="stop-color:#e2f4fd;stop-opacity:1"/><stop offset="1" style="stop-color:#4dc4ff;stop-opacity:1"/></linearGradient><linearGradient id="_Linear2" x1="0" y1="0" x2="1" y2="0" gradientUnits="userSpaceOnUse" gradientTransform="matrix(9.49101e-16,15.5,-15.5,9.49101e-16,10.506,25.5)"><stop offset="0" style="stop-color:#83d3f6;stop-opacity:1"/><stop offset="1" style="stop-color:#2898d4;stop-opacity:1"/></linearGradient><linearGradient id="_Linear3" x1="0" y1="0" x2="1" y2="0" gradientUnits="userSpaceOnUse" gradientTransform="matrix(1.13813e-15,18.5871,-18.5871,1.13813e-15,16.5,27)"><stop offset="0" style="stop-color:#83d3f6;stop-opacity:1"/><stop offset="1" style="stop-color:#2898d4;stop-opacity:1"/></linearGradient><linearGradient id="_Linear4" x1="0" y1="0" x2="1" y2="0" gradientUnits="userSpaceOnUse" gradientTransform="matrix(1.19403e-15,19.5,-19.5,1.19403e-15,21.9406,25.5)"><stop offset="0" style="stop-color:#83d3f6;stop-opacity:1"/><stop offset="1" style="stop-color:#2898d4;stop-opacity:1"/></linearGradient></defs></svg>