<?xml version="1.0" encoding="UTF-8"?>
<svg id="Layer_1" data-name="Layer 1" xmlns="http://www.w3.org/2000/svg" xmlns:xlink="http://www.w3.org/1999/xlink" viewBox="0 0 420.75 420.75">
  <defs>
    <style>
      .cls-1 {
        fill: url(#linear-gradient);
      }

      .cls-2 {
        fill: url(#linear-gradient-11);
      }

      .cls-2, .cls-3, .cls-4, .cls-5, .cls-6, .cls-7, .cls-8, .cls-9, .cls-10, .cls-11, .cls-12, .cls-13 {
        fill-rule: evenodd;
      }

      .cls-3 {
        fill: url(#linear-gradient-13);
      }

      .cls-4 {
        fill: url(#linear-gradient-12);
      }

      .cls-5 {
        fill: url(#linear-gradient-10);
      }

      .cls-6 {
        fill: url(#linear-gradient-8);
      }

      .cls-7 {
        fill: url(#linear-gradient-9);
      }

      .cls-8 {
        fill: url(#linear-gradient-3);
      }

      .cls-9 {
        fill: url(#linear-gradient-2);
      }

      .cls-10 {
        fill: url(#linear-gradient-4);
      }

      .cls-11 {
        fill: url(#linear-gradient-6);
      }

      .cls-12 {
        fill: url(#linear-gradient-7);
      }

      .cls-13 {
        fill: url(#linear-gradient-5);
      }
    </style>
    <linearGradient id="linear-gradient" x1="-167.34" y1="534.73" x2="-166.34" y2="534.73" gradientTransform="translate(-204322.51 64262.39) rotate(90) scale(382.5 -382.5)" gradientUnits="userSpaceOnUse">
      <stop offset="0" stop-color="#fcd935"/>
      <stop offset="1" stop-color="#c19f00"/>
    </linearGradient>
    <linearGradient id="linear-gradient-2" y1="534.66" y2="534.66" gradientTransform="translate(-73474.27 23101.88) rotate(90) scale(137.82 -137.82)" xlink:href="#linear-gradient"/>
    <linearGradient id="linear-gradient-3" y1="534.67" y2="534.67" gradientTransform="translate(-57096.9 -6830.99) rotate(114.23) scale(103.18 -103.18)" xlink:href="#linear-gradient"/>
    <linearGradient id="linear-gradient-4" y1="534.64" y2="534.64" gradientTransform="translate(-46115.95 -35851.27) rotate(145.11) scale(104.92 -104.92)" xlink:href="#linear-gradient"/>
    <linearGradient id="linear-gradient-5" y1="534.63" y2="534.63" gradientTransform="translate(-20519.09 -73306.97) rotate(-178.5) scale(136.44 -136.44)" xlink:href="#linear-gradient"/>
    <linearGradient id="linear-gradient-6" y1="534.65" y2="534.65" gradientTransform="translate(24194.38 -67044.27) rotate(-143.13) scale(127.51 -127.51)" xlink:href="#linear-gradient"/>
    <linearGradient id="linear-gradient-7" y1="534.64" y2="534.64" gradientTransform="translate(38921.75 -47474.51) rotate(-123.71) scale(109.75 -109.75)" xlink:href="#linear-gradient"/>
    <linearGradient id="linear-gradient-8" y1="534.66" y2="534.66" gradientTransform="translate(55170.26 -19621.54) rotate(-92.62) scale(104.4 -104.4)" xlink:href="#linear-gradient"/>
    <linearGradient id="linear-gradient-9" y1="534.62" y2="534.62" gradientTransform="translate(57549.15 15137.83) rotate(-58.19) scale(105.85 -105.85)" xlink:href="#linear-gradient"/>
    <linearGradient id="linear-gradient-10" y1="534.67" y2="534.67" gradientTransform="translate(64881.38 56767.23) rotate(-31.56) scale(153.45 -153.45)" xlink:href="#linear-gradient"/>
    <linearGradient id="linear-gradient-11" y1="534.66" y2="534.66" gradientTransform="translate(34594.14 110635.44) scale(206.53 -206.53)" xlink:href="#linear-gradient"/>
    <linearGradient id="linear-gradient-12" x1="-165.79" y1="531.09" x2="-164.79" y2="531.09" gradientTransform="translate(57106.33 -6830.99) rotate(65.77) scale(103.18)" xlink:href="#linear-gradient"/>
    <linearGradient id="linear-gradient-13" x1="-164.23" y1="532.4" x2="-163.23" y2="532.4" gradientTransform="translate(46125.38 -35851.27) rotate(34.89) scale(104.92)" xlink:href="#linear-gradient"/>
  </defs>
  <circle class="cls-1" cx="210.38" cy="210.38" r="123.74"/>
  <path class="cls-9" d="M196.03,14.34V49.34c0,7.92,6.43,14.34,14.34,14.34s14.34-6.43,14.34-14.34V14.34c0-7.92-6.43-14.34-14.34-14.34s-14.34,6.43-14.34,14.34Z"/>
  <path class="cls-8" d="M295.96,33.43l-17.5,30.31c-3.96,6.87-1.61,15.64,5.26,19.6,6.85,3.96,15.63,1.61,19.58-5.26l17.52-30.31c3.94-6.85,1.59-15.63-5.26-19.58s-15.64-1.61-19.6,5.24Z"/>
  <path class="cls-10" d="M372.98,99.93l-30.31,17.52c-6.87,3.96-9.22,12.74-5.26,19.58,3.96,6.87,12.74,9.22,19.6,5.26l30.31-17.5c6.85-3.96,9.2-12.76,5.24-19.6s-12.74-9.2-19.58-5.26h0Z"/>
  <path class="cls-13" d="M406.41,196.03h-35c-7.92,0-14.34,6.43-14.34,14.34s6.43,14.34,14.34,14.34h35c7.92,0,14.34-6.43,14.34-14.34s-6.43-14.34-14.34-14.34Z"/>
  <path class="cls-11" d="M387.32,295.96l-30.31-17.5c-6.87-3.96-15.64-1.61-19.6,5.26-3.96,6.85-1.61,15.63,5.26,19.58l30.31,17.52c6.85,3.94,15.63,1.59,19.58-5.26s1.61-15.64-5.24-19.6h0Z"/>
  <path class="cls-12" d="M320.82,372.98l-17.52-30.31c-3.96-6.87-12.74-9.22-19.58-5.26-6.87,3.96-9.22,12.74-5.26,19.6l17.5,30.31c3.96,6.85,12.76,9.2,19.6,5.24s9.2-12.74,5.26-19.58h0Z"/>
  <path class="cls-6" d="M224.72,406.41v-35c0-7.92-6.43-14.34-14.34-14.34s-14.34,6.43-14.34,14.34v35c0,7.92,6.43,14.34,14.34,14.34s14.34-6.43,14.34-14.34Z"/>
  <path class="cls-7" d="M124.79,387.32l17.5-30.31c3.96-6.87,1.61-15.64-5.26-19.6-6.85-3.96-15.63-1.61-19.58,5.26l-17.52,30.31c-3.94,6.85-1.59,15.63,5.26,19.58s15.64,1.61,19.6-5.24h0Z"/>
  <path class="cls-5" d="M47.77,320.82l30.31-17.52c6.87-3.96,9.22-12.74,5.26-19.58-3.96-6.87-12.74-9.22-19.6-5.26l-30.31,17.5c-6.85,3.96-9.2,12.76-5.24,19.6s12.74,9.2,19.58,5.26Z"/>
  <path class="cls-2" d="M14.34,224.72H49.34c7.92,0,14.34-6.43,14.34-14.34s-6.43-14.34-14.34-14.34H14.34c-7.92,0-14.34,6.43-14.34,14.34s6.43,14.34,14.34,14.34Z"/>
  <path class="cls-4" d="M96.41,22.63c-6.85,3.96-9.2,12.74-5.26,19.58l17.52,30.31c3.96,6.87,12.74,9.22,19.58,5.26,6.87-3.96,9.22-12.74,5.26-19.6l-17.5-30.31c-3.96-6.85-12.76-9.2-19.6-5.24Z"/>
  <path class="cls-3" d="M39,94.37c-6.85-3.94-15.63-1.59-19.58,5.26s-1.61,15.64,5.24,19.6l30.31,17.5c6.87,3.96,15.64,1.61,19.6-5.26,3.96-6.85,1.61-15.63-5.26-19.58l-30.31-17.52h0Z"/>
</svg>