<?xml version="1.0" encoding="UTF-8" standalone="no"?><!DOCTYPE svg PUBLIC "-//W3C//DTD SVG 1.1//EN" "http://www.w3.org/Graphics/SVG/1.1/DTD/svg11.dtd"><svg width="100%" height="100%" viewBox="0 0 32 32" version="1.1" xmlns="http://www.w3.org/2000/svg" xmlns:xlink="http://www.w3.org/1999/xlink" xml:space="preserve" xmlns:serif="http://www.serif.com/" style="fill-rule:evenodd;clip-rule:evenodd;stroke-linejoin:round;stroke-miterlimit:2;"><path d="M11.021,17.002c-0.106,0.518 -0.369,1.776 -0.645,2.931c-0.054,0.225 -0.001,0.463 0.144,0.644c0.145,0.181 0.366,0.285 0.598,0.28c0.848,-0.014 1.657,0.039 1.657,0.039c0.016,0.001 0.033,0.001 0.049,0.001c0.312,0 0.6,0.17 0.751,0.443c0.105,0.192 0.132,0.413 0.082,0.619c-0.055,0.223 -0.004,0.46 0.138,0.641c0.142,0.181 0.36,0.287 0.59,0.287l3.233,0c0.232,0 0.451,-0.107 0.593,-0.291c0.142,-0.184 0.191,-0.423 0.132,-0.648c-0.037,-0.145 -0.032,-0.299 0.018,-0.443c0.097,-0.186 0.521,-0.989 1.036,-1.878c0.604,-1.044 1.302,-2.168 1.587,-2.625c-0.105,0.518 -0.368,1.776 -0.645,2.931c-0.054,0.225 -0,0.463 0.145,0.644c0.145,0.181 0.366,0.285 0.598,0.28c0.848,-0.014 1.657,0.039 1.657,0.039c0.016,0.001 0.033,0.001 0.049,0.001c0.312,0 0.6,0.17 0.751,0.443c0.105,0.192 0.132,0.412 0.082,0.618c-0.055,0.226 -0.003,0.465 0.142,0.646c0.146,0.182 0.367,0.286 0.599,0.282c2.084,-0.036 3.673,-0.799 4.749,-1.98c1.072,-1.176 1.639,-2.783 1.639,-4.561c-0,-0 -0,-0 -0,-0c-0,-3.395 -2.585,-6.185 -5.895,-6.511c-0.76,-3.93 -4.223,-6.903 -8.374,-6.903c-3.034,0 -5.7,1.587 -7.212,3.976c-0.009,-0.001 -0.019,-0.001 -0.029,-0.001c-4.41,0 -7.99,3.581 -7.99,7.991c0,2.729 1.354,7.256 6.288,7.912c0.241,0.032 0.483,-0.055 0.649,-0.233c0.165,-0.179 0.234,-0.426 0.184,-0.665c-0.028,-0.134 -0.02,-0.275 0.026,-0.408c0.097,-0.185 0.521,-0.987 1.036,-1.876c0.604,-1.044 1.302,-2.168 1.588,-2.625Z" style="fill:url(#_Linear1);"/><path d="M19.036,24.019l0.042,0.004c-0.61,1.356 -1.147,2.642 -1.254,2.9c-0.374,0.658 -0.164,1.511 0.49,1.923c0.654,0.413 1.515,0.234 1.953,-0.395c0.231,-0.255 1.583,-1.767 2.735,-3.166c0.961,-1.167 1.747,-2.226 1.747,-2.226c0.012,-0.015 0.022,-0.031 0.033,-0.047c0.458,-0.726 0.485,-1.644 0.07,-2.396c-0.41,-0.743 -1.187,-1.208 -2.035,-1.218c-0.08,-0.005 -0.392,-0.024 -0.805,-0.035c0.238,-1.059 0.435,-2.023 0.482,-2.256c0.244,-0.714 -0.116,-1.511 -0.832,-1.798c-0.716,-0.286 -1.527,0.043 -1.846,0.735c-0.167,0.263 -1.006,1.602 -1.717,2.831c-0.604,1.043 -1.087,1.97 -1.087,1.97c-0.012,0.022 -0.022,0.045 -0.031,0.068c-0.28,0.698 -0.194,1.489 0.227,2.111c0.413,0.61 1.095,0.98 1.828,0.995Z" style="fill:url(#_Linear2);"/><path d="M9.072,24.019l0.042,0.004c-0.609,1.356 -1.147,2.642 -1.254,2.9c-0.373,0.658 -0.164,1.511 0.49,1.923c0.654,0.413 1.515,0.234 1.953,-0.395c0.231,-0.255 1.583,-1.767 2.735,-3.166c0.961,-1.167 1.748,-2.226 1.748,-2.226c0.011,-0.015 0.022,-0.031 0.032,-0.047c0.458,-0.726 0.485,-1.644 0.07,-2.396c-0.41,-0.743 -1.187,-1.208 -2.035,-1.218c-0.079,-0.005 -0.391,-0.024 -0.805,-0.035c0.239,-1.059 0.435,-2.023 0.482,-2.256c0.245,-0.714 -0.116,-1.511 -0.832,-1.798c-0.716,-0.286 -1.527,0.043 -1.846,0.735c-0.167,0.263 -1.006,1.602 -1.717,2.831c-0.604,1.043 -1.087,1.97 -1.087,1.97c-0.011,0.022 -0.022,0.045 -0.031,0.068c-0.279,0.698 -0.194,1.489 0.227,2.111c0.413,0.61 1.095,0.98 1.828,0.995Z" style="fill:url(#_Linear3);"/><defs><linearGradient id="_Linear1" x1="0" y1="0" x2="1" y2="0" gradientUnits="userSpaceOnUse" gradientTransform="matrix(1.04095e-15,17,-17,1.04095e-15,16.0518,18)"><stop offset="0" style="stop-color:#e2f4fd;stop-opacity:1"/><stop offset="1" style="stop-color:#4dc4ff;stop-opacity:1"/></linearGradient><linearGradient id="_Linear2" x1="0" y1="0" x2="1" y2="0" gradientUnits="userSpaceOnUse" gradientTransform="matrix(1.80537e-15,29.4839,-29.4839,1.80537e-15,16,24)"><stop offset="0" style="stop-color:#fec110;stop-opacity:1"/><stop offset="1" style="stop-color:#d6a000;stop-opacity:1"/></linearGradient><linearGradient id="_Linear3" x1="0" y1="0" x2="1" y2="0" gradientUnits="userSpaceOnUse" gradientTransform="matrix(1.80537e-15,29.4839,-29.4839,1.80537e-15,16,24)"><stop offset="0" style="stop-color:#fec110;stop-opacity:1"/><stop offset="1" style="stop-color:#d6a000;stop-opacity:1"/></linearGradient></defs></svg>